<svg xmlns="http://www.w3.org/2000/svg" xmlns:xlink="http://www.w3.org/1999/xlink" class="icon" viewBox="0 0 1025 1024"
     id="comment" width="100%" height="100%">
    <path d="M256 364.512c-35.328 0-64 29.76-64 66.496 0 36.736 28.672 66.496 64 66.496 35.36 0 64-29.76 64-66.496 0-36.736-28.64-66.496-64-66.496z m256.032 0c-35.36 0-64 29.76-64 66.496 0 36.736 28.64 66.496 64 66.496 35.328 0 63.968-29.76 63.968-66.496 0-36.736-28.64-66.496-63.968-66.496z m255.968 0c-35.328 0-64 29.76-64 66.496 0 36.736 28.672 66.496 64 66.496s64-29.76 64-66.496c0.032-36.736-28.672-66.496-64-66.496zM896.032 32h-768C57.312 32 0 91.552 0 165.024v498.752c0 73.44 58.56 141.12 130.88 141.12h195.104c33.952 36.288 174.72 182.208 174.72 182.208a15.488 15.488 0 0 0 22.592 0s103.072-116.992 170.176-182.208h199.616c72.32 0 130.88-67.712 130.88-141.12V165.024C1024 91.552 966.688 32 896.032 32zM960 663.776c0 36.704-30.752 75.264-66.88 75.264h-196.32c-23.808 0-45.184 24.48-45.184 24.48l-137.824 143.232-137.824-143.232s-26.208-24.48-48.704-24.48H130.88C94.752 739.008 64 700.48 64 663.776V165.024c0-36.736 28.64-66.496 64-66.496h768c35.328 0 63.968 29.76 63.968 66.496v498.752z m0 0"
          fill="" p-id="4914"></path>
</svg>